# xmcd
#
# Track frame offsets: 
#        150
#        17033
#        33139
#        49879
#        64879
#        87029
#        103642
#        124963
#        145496
#        164191
#        194248
#
# Disc length: 2615 seconds
#
# Revision: 1
# Processed by: cddbd v1.5.2PL0 Copyright (c) Steve Scherf et al.
# Submitted via: ExactAudioCopy v1.0b1
#
DISCID=a40a350b
DTITLE=Лекарство от меланхолии - Манго-Манго
DYEAR=2007
DGENRE=Blues
TTITLE0=Странные танцы
TTITLE1=Блюз весенних котов
TTITLE2=Осень в парке
TTITLE3=Музыка дождей
TTITLE4=21-38
TTITLE5=Фокстрот-коктейль
TTITLE6=Музыка детства
TTITLE7=Осень и туман
TTITLE8=Волшебство
TTITLE9=Сказки есть (колыбельная)
TTITLE10=Multimedia track
EXTD=
EXTT0=
EXTT1=
EXTT2=
EXTT3=
EXTT4=
EXTT5=
EXTT6=
EXTT7=
EXTT8=
EXTT9=
EXTT10=
PLAYORDER=
